<svg xmlns="http://www.w3.org/2000/svg" xmlns:xlink="http://www.w3.org/1999/xlink" width="277" height="277" viewBox="0 0 277 277">
  <defs>
    <clipPath id="clip-Corona_Red">
      <rect width="277" height="277"/>
    </clipPath>
  </defs>
  <g id="Corona_Red" clip-path="url(#clip-Corona_Red)">
    <rect width="277" height="277" fill="#fff"/>
    <path id="Pfad_27" data-name="Pfad 27" d="M44.132,62.743c38.983-35.679,55.975-42.288,106.1-52.991s63.012-15.908,94.4,10.177c21.93,18.224,21.846,74.048,0,132.537s-12.517,94.4-103.76,96.742S18.484,199.082-5.7,152.466,5.149,98.422,44.132,62.743Z" transform="translate(15 13)" fill="#f9aba5"/>
    <g id="coronaVirus" transform="translate(53 50.118)">
      <g id="Gruppe_10" data-name="Gruppe 10" transform="translate(0 -0.001)">
        <path id="Pfad_21" data-name="Pfad 21" d="M175.667,64.782a9.068,9.068,0,0,0-5.256,8.047c-2.858.931-6.179,1.876-9.772,2.664a65.506,65.506,0,0,0-9.03-19.057,54.551,54.551,0,0,1,7.215-3.984,4.695,4.695,0,1,0-1.2-2.809,49.445,49.445,0,0,1-8.93,2.887,66.163,66.163,0,0,0-13.146-12.387,125.349,125.349,0,0,1,6.9-13.585,11.659,11.659,0,0,1-2.073-.744,11.524,11.524,0,0,1-3.836-2.966,116.225,116.225,0,0,1-9.168,12.327,65.278,65.278,0,0,0-16.614-5.863,50.573,50.573,0,0,1,.828-11.319,4.694,4.694,0,1,0-2.989-.627,46.9,46.9,0,0,1-3.693,11.026,65.432,65.432,0,0,0-21.252,1.018A107.526,107.526,0,0,1,79.2,16.623,9.075,9.075,0,0,0,70.974.589a9.078,9.078,0,0,0,2.535,17.477,99.592,99.592,0,0,1,2.432,13.5A65.6,65.6,0,0,0,58.792,40.5a52.871,52.871,0,0,1-6.189-7.25,4.691,4.691,0,1,0-2.533,1.707,48.928,48.928,0,0,1,4.71,8.7A66.2,66.2,0,0,0,43.338,56.291a121.73,121.73,0,0,1-15.914-8.837,11.783,11.783,0,0,1-.856,2.027,11.583,11.583,0,0,1-3.149,3.688,112.074,112.074,0,0,1,14.532,12.4,65.363,65.363,0,0,0-5.014,15.008,55.666,55.666,0,0,1-7.179-.708,4.694,4.694,0,1,0-.575,3,51.657,51.657,0,0,1,7.061,1.865,65.363,65.363,0,0,0,.081,18.7A104.217,104.217,0,0,1,16.814,108.4,9.075,9.075,0,0,0,.472,115.99a9.078,9.078,0,0,0,17.563-1.849,96.887,96.887,0,0,1,16.188-2.033,65.691,65.691,0,0,0,14.813,26.25,64.487,64.487,0,0,1-6.289,8.783,5.629,5.629,0,1,0,2.747,2.443,60.382,60.382,0,0,1,7.6-7.181,65.671,65.671,0,0,0,28.023,15.132,113.851,113.851,0,0,1-.939,11.506,12.077,12.077,0,0,1,1.971-.171,12.408,12.408,0,0,1,1.794.132,12.152,12.152,0,0,1,4.017,1.346,64.7,64.7,0,0,1,4.236-11c1.726.135,3.464.225,5.224.225a65.63,65.63,0,0,0,23.786-4.45,51.3,51.3,0,0,1,6.678,8.444,4.693,4.693,0,1,0,2.617-1.577,48.816,48.816,0,0,1-4.3-9.035,66.051,66.051,0,0,0,21.912-17.23c3.38,1.017,6.545,2.128,9.383,3.222a11.75,11.75,0,0,1,.413-2.161,11.509,11.509,0,0,1,2.318-4.256c-2.275-1-4.73-2.162-7.269-3.485a65.47,65.47,0,0,0,10.269-35.281,66.15,66.15,0,0,0-.974-11.232c3.531-1.673,6.956-3.042,9.992-4.13a9.053,9.053,0,1,0,3.421-13.622Zm-53.4,41.372a3.012,3.012,0,1,1,4.232.486A3.012,3.012,0,0,1,122.262,106.154ZM103.134,91.467a3.012,3.012,0,1,1-.486,4.232A3.012,3.012,0,0,1,103.134,91.467Zm.508,19.487a4.287,4.287,0,1,1,6.023.691A4.286,4.286,0,0,1,103.642,110.953Zm7.568-27.406a4.287,4.287,0,1,1,.691-6.023A4.286,4.286,0,0,1,111.21,83.547Zm-8.495-16.775A8.274,8.274,0,1,1,114.34,68.1,8.274,8.274,0,0,1,102.715,66.772Zm30.777-6.683a2.162,2.162,0,1,1,2.162-2.162A2.162,2.162,0,0,1,133.492,60.089Zm-9.876,31.377a3.012,3.012,0,1,1-.486,4.232A3.012,3.012,0,0,1,123.616,91.467ZM122.9,75.084a2.162,2.162,0,1,1-.349,3.038A2.163,2.163,0,0,1,122.9,75.084Zm16.835,3.387a2.162,2.162,0,1,1,.349-3.038A2.163,2.163,0,0,1,139.73,78.471Zm2.644-14.288A2.626,2.626,0,1,1,145,61.557,2.625,2.625,0,0,1,142.374,64.183Zm4.55,12.914a2.626,2.626,0,1,1,3.69.424A2.626,2.626,0,0,1,146.924,77.1ZM133.492,46.8a2.162,2.162,0,1,1-2.162,2.162A2.162,2.162,0,0,1,133.492,46.8Zm-20.546-8.419a2.626,2.626,0,1,1-2.626-2.626A2.626,2.626,0,0,1,112.946,38.386Zm-11.509-5.793a2.162,2.162,0,1,1-2.162,2.162A2.162,2.162,0,0,1,101.437,32.593Zm-6.1,84.848a8.274,8.274,0,1,1,1.333-11.625A8.274,8.274,0,0,1,95.339,117.44ZM77.493,38.154a3.012,3.012,0,1,1,3.012,3.012A3.012,3.012,0,0,1,77.493,38.154Zm4.287,13.44a4.287,4.287,0,1,1,4.287,4.287A4.287,4.287,0,0,1,81.78,51.593ZM96.146,86.969a4.287,4.287,0,1,1-4.287-4.287A4.287,4.287,0,0,1,96.146,86.969Zm-9.89-9.448a2.626,2.626,0,1,1,.424-3.69A2.626,2.626,0,0,1,86.257,77.521ZM93.018,36.3a3.012,3.012,0,1,1-3.012,3.012A3.012,3.012,0,0,1,93.018,36.3Zm-19.7,6.488A3.012,3.012,0,1,1,70.31,45.8,3.012,3.012,0,0,1,73.322,42.788Zm-13.368,11.4a2.162,2.162,0,1,1-3.038-.349A2.163,2.163,0,0,1,59.954,54.187ZM51.67,113.768a4.287,4.287,0,1,1-.691,6.023A4.286,4.286,0,0,1,51.67,113.768Zm6.719-11.846a3.012,3.012,0,1,1-.486,4.232A3.012,3.012,0,0,1,58.389,101.922Zm4.617-5.737a3.012,3.012,0,1,1,.486-4.232A3.012,3.012,0,0,1,63.006,96.184Zm-1.43-20.752a2.162,2.162,0,1,1-3.038-.349A2.163,2.163,0,0,1,61.576,75.433ZM50.459,65.265A2.162,2.162,0,1,1,48.3,63.1,2.162,2.162,0,0,1,50.459,65.265Zm-7.936,30.92a3.012,3.012,0,1,1,.486-4.232A3.012,3.012,0,0,1,42.523,96.184ZM69.778,84.592a3.012,3.012,0,1,1-.486,4.232A3.012,3.012,0,0,1,69.778,84.592Zm.711,18.965a4.287,4.287,0,1,1,6.023.691A4.286,4.286,0,0,1,70.489,103.557Zm35.9,27.8a8.274,8.274,0,1,1,11.625,1.333A8.274,8.274,0,0,1,106.39,131.352Zm10.768,20.7a3.012,3.012,0,1,1,3.537-2.375A3.013,3.013,0,0,1,117.159,152.049Zm21.719-12.216a2.626,2.626,0,1,1-2.07-3.084A2.626,2.626,0,0,1,138.878,139.833Zm-8.324-7.3a2.163,2.163,0,1,1-1.7-2.54A2.163,2.163,0,0,1,130.554,132.528Zm13.755-5.249a2.626,2.626,0,1,1,.3-3.7A2.626,2.626,0,0,1,144.309,127.279Zm-.117-11.976a2.163,2.163,0,1,1-.245,3.048A2.162,2.162,0,0,1,144.192,115.3Zm12.329-7.841a2.163,2.163,0,1,1,.245-3.048A2.162,2.162,0,0,1,156.521,107.462Zm-9.779-13.406a3.012,3.012,0,1,1-4.232-.486A3.012,3.012,0,0,1,146.742,94.055Z" transform="translate(0 0.001)" fill="#fff"/>
        <path id="Pfad_22" data-name="Pfad 22" d="M152.066,24.247a9.3,9.3,0,0,0,4.036.917,9.651,9.651,0,0,0,8.651-5.492A9.547,9.547,0,0,0,160.334,6.93a9.3,9.3,0,0,0-4.036-.917,9.651,9.651,0,0,0-8.651,5.492A9.548,9.548,0,0,0,152.066,24.247Z" transform="translate(-10.727 -0.439)" fill="#fff"/>
        <path id="Pfad_23" data-name="Pfad 23" d="M173.453,154.934a9.594,9.594,0,0,0,5.735,4.577,9.725,9.725,0,0,0,2.732.394,9.465,9.465,0,0,0,2.593-18.585,9.726,9.726,0,0,0-2.732-.394,9.547,9.547,0,0,0-9.139,6.792A9.356,9.356,0,0,0,173.453,154.934Z" transform="translate(-12.596 -10.305)" fill="#fff"/>
        <path id="Pfad_24" data-name="Pfad 24" d="M89.3,184.7a10.272,10.272,0,1,0,8.537,11.628A10.169,10.169,0,0,0,89.3,184.7Z" transform="translate(-5.679 -13.498)" fill="#fff"/>
        <path id="Pfad_25" data-name="Pfad 25" d="M12.184,54.911a9.7,9.7,0,0,0,4.594,1.168,9.469,9.469,0,0,0,8.353-4.946,9.361,9.361,0,0,0,.715-7.226,9.591,9.591,0,0,0-4.653-5.672A9.7,9.7,0,0,0,16.6,37.067a9.458,9.458,0,0,0-4.414,17.844Z" transform="translate(-0.52 -2.71)" fill="#fff"/>
      </g>
    </g>
    <g id="Gruppe_12" data-name="Gruppe 12" transform="translate(-34 -101)">
      <g id="Ellipse_4" data-name="Ellipse 4" transform="translate(100 151)" fill="#f24638" stroke="#f24638" stroke-width="1">
        <circle cx="8" cy="8" r="8" stroke="none"/>
        <circle cx="8" cy="8" r="7.5" fill="none"/>
      </g>
      <g id="Ellipse_5" data-name="Ellipse 5" transform="translate(48 172)" fill="#f24638" stroke="#f24638" stroke-width="1">
        <circle cx="10.5" cy="10.5" r="10.5" stroke="none"/>
        <circle cx="10.5" cy="10.5" r="10" fill="none"/>
      </g>
      <g id="Ellipse_6" data-name="Ellipse 6" transform="translate(64 133)" fill="#f24638" stroke="#f24638" stroke-width="1">
        <circle cx="5" cy="5" r="5" stroke="none"/>
        <circle cx="5" cy="5" r="4.5" fill="none"/>
      </g>
      <g id="Ellipse_7" data-name="Ellipse 7" transform="translate(74 162)" fill="#f24638" stroke="#f24638" stroke-width="1">
        <circle cx="5" cy="5" r="5" stroke="none"/>
        <circle cx="5" cy="5" r="4.5" fill="none"/>
      </g>
      <g id="Ellipse_8" data-name="Ellipse 8" transform="translate(260 327)" fill="#f24638" stroke="#f24638" stroke-width="1">
        <circle cx="8" cy="8" r="8" stroke="none"/>
        <circle cx="8" cy="8" r="7.5" fill="none"/>
      </g>
      <g id="Ellipse_9" data-name="Ellipse 9" transform="translate(286 301)" fill="#f24638" stroke="#f24638" stroke-width="1">
        <circle cx="5" cy="5" r="5" stroke="none"/>
        <circle cx="5" cy="5" r="4.5" fill="none"/>
      </g>
      <g id="Ellipse_10" data-name="Ellipse 10" transform="translate(281 324)" fill="#f24638" stroke="#f24638" stroke-width="1">
        <circle cx="4" cy="4" r="4" stroke="none"/>
        <circle cx="4" cy="4" r="3.5" fill="none"/>
      </g>
    </g>
  </g>
</svg>
