<svg xmlns="http://www.w3.org/2000/svg" xmlns:xlink="http://www.w3.org/1999/xlink" width="142" height="140" viewBox="0 0 142 140">
  <defs>
    <clipPath id="clip-ort-icon3">
      <rect width="142" height="140"/>
    </clipPath>
  </defs>
  <g id="ort-icon3" clip-path="url(#clip-ort-icon3)">
    <rect width="142" height="140" fill="#fff"/>
    <circle id="Ellipse_11" data-name="Ellipse 11" cx="33" cy="33" r="33" transform="translate(38 37)" fill="#f24638"/>
    <g id="noAlcohol" transform="translate(50.612 50.596)">
      <g id="Gruppe_11" data-name="Gruppe 11" transform="translate(0 0)">
        <path id="Pfad_48" data-name="Pfad 48" d="M27,47h6.668V43H27Zm1.334-2.667h4v1.334h-4Z" transform="translate(-10.331 -15.662)" fill="#fff"/>
        <path id="Pfad_49" data-name="Pfad 49" d="M22,2a20,20,0,1,0,20,20A20,20,0,0,0,22,2Zm0,38.673A18.67,18.67,0,1,1,40.673,22,18.67,18.67,0,0,1,22,40.673Z" transform="translate(-2 -2)" fill="#fff"/>
        <path id="Pfad_50" data-name="Pfad 50" d="M23.336,6A17.336,17.336,0,1,0,40.673,23.336,17.336,17.336,0,0,0,23.336,6Zm16,17.336a15.92,15.92,0,0,1-3.319,9.741l-6.683-6.683V22.878a5.959,5.959,0,0,0-1.758-4.243l-.876-.876a4.637,4.637,0,0,1-1.367-3.3V9.334a.667.667,0,0,0-.667-.667H22a.667.667,0,0,0-.667.667v5.126a4.628,4.628,0,0,1-1.022,2.911L13.6,10.652A15.991,15.991,0,0,1,39.339,23.336ZM22.66,14.668h1.353A5.954,5.954,0,0,0,25.761,18.7l.876.876A4.631,4.631,0,0,1,28,22.669H25.613L21.263,18.32a5.948,5.948,0,0,0,1.4-3.652ZM24,13.335H22.669V10H24ZM28,24v1.058L26.946,24Zm-20.67-.667A15.92,15.92,0,0,1,10.652,13.6L17.759,20.7a5.994,5.994,0,0,0-.423,2.176V36.672a.667.667,0,0,0,.667.667H28.671a.667.667,0,0,0,.667-.667V32.28l3.74,3.74A15.991,15.991,0,0,1,7.334,23.336Zm11.335,6h7.725L28,30.947v5.058H18.669Zm0-1.334V24H21.06l4,4Zm0-5.334a4.658,4.658,0,0,1,.133-.915l.919.915ZM34.105,35.163,29.142,30.2l-2-2-5.334-5.334-2.79-2.79L11.51,12.567q.5-.553,1.058-1.058l7.3,7.3,5,5L28.2,27.142l6.964,6.964Q34.659,34.659,34.105,35.163Z" transform="translate(-3.333 -3.333)" fill="#fff"/>
      </g>
    </g>
  </g>
</svg>
