<svg xmlns="http://www.w3.org/2000/svg" xmlns:xlink="http://www.w3.org/1999/xlink" width="142" height="140" viewBox="0 0 142 140">
  <defs>
    <clipPath id="clip-ort-icon1v">
      <rect width="142" height="140"/>
    </clipPath>
  </defs>
  <g id="ort-icon1v" clip-path="url(#clip-ort-icon1v)">
    <rect width="142" height="140" fill="#fff"/>
    <g id="mask" transform="translate(45.974 42.042)">
      <path id="Pfad_26" data-name="Pfad 26" d="M64.33,26.608a18.138,18.138,0,0,0-1.144-3.4c-.212-.514-.43-1.045-.62-1.571a1.58,1.58,0,0,0-.637-1.253l-.027-.018-.746-.452a2.7,2.7,0,0,0,.514-2.9c-.122-.287-.258-.572-.4-.847L60.18,14.112l.23-.119a.352.352,0,0,0,.151-.15A2.626,2.626,0,0,0,58.176,10l-7.42.175a7.219,7.219,0,0,0-5.728,3.343,5.047,5.047,0,0,0-.551,1.181l-.015.048a.81.81,0,0,1-.774.565h-.009a4.688,4.688,0,0,0-.057,9.375,1.937,1.937,0,0,0,.208-.01,5.451,5.451,0,0,0,1.33,2.173,8.435,8.435,0,0,0,2.23,1.673L47.307,29.7a.659.659,0,0,0-.115.2,2.983,2.983,0,0,0-.611,3.447,34.263,34.263,0,0,0-3.548,4.129.667.667,0,0,0,.527,1.06l17.724.305H61.3a.668.668,0,0,0,.515-1.09h0a19.232,19.232,0,0,0-4.687-3.7l-.1-2.285c.153.053.325.126.5.2a4.654,4.654,0,0,0,1.772.477,2.139,2.139,0,0,0,.732-.125A10.1,10.1,0,0,0,62.907,30.7a.358.358,0,0,0,.04-.037c.054-.059.116-.122.182-.19A3.858,3.858,0,0,0,64.33,26.608ZM60.644,16.494c.136.258.264.525.378.794a2,2,0,0,1-.41,2.177.66.66,0,0,0,.133,1.024l.777.47a.877.877,0,0,1,.327.532l-2.756,1.381-4.051-.584.325-3.753a4.178,4.178,0,0,1,2.206-3.076l1.982-1.024ZM51.176,27.406a17.085,17.085,0,0,0,4.859,1.724l-.206.476a1.289,1.289,0,0,0,.091,1.2l.385.614.1,2.193a75.886,75.886,0,0,0-8.327-4.1l-.047-.016.255-3.577c.039-.544.106-1.087.2-1.626A6.731,6.731,0,0,0,51.176,27.406ZM48.717,23.16c.022-.089.044-.178.067-.267A1.647,1.647,0,0,1,51.032,21.8L54.3,22.871a4.308,4.308,0,0,1-.633,2.027,4.435,4.435,0,0,1-2.3,1.815,6.863,6.863,0,0,1-2.493-3.207C48.826,23.384,48.77,23.266,48.717,23.16Zm3.476,3.97A4.959,4.959,0,0,0,55,22.992l3.822.551a5.717,5.717,0,0,1-2.371,4.952A16.326,16.326,0,0,1,52.193,27.13Zm-7.745-2.886a.371.371,0,0,0-.363-.3l-.039,0-.144.018a1.931,1.931,0,0,1-.272.023,3.984,3.984,0,1,1,.049-7.968h.01a1.511,1.511,0,0,0,1.443-1.054l.015-.048a4.348,4.348,0,0,1,.474-1.017,6.516,6.516,0,0,1,5.168-3.019l7.4-.174a1.923,1.923,0,0,1,1.791,2.716L57.25,14.834a4.883,4.883,0,0,0-2.58,3.608c0,.007,0,.014,0,.022l-.32,3.7-3.035-1.007a2.35,2.35,0,0,0-3.208,1.56,17.211,17.211,0,0,0-.524,3.153l-.135,1.892A5.974,5.974,0,0,1,44.448,24.244Zm-.806,13.584a33.582,33.582,0,0,1,3.482-4.035c.954.237,5.42,1.464,7.783,4.229Zm17.575.3-5.4-.093A12.5,12.5,0,0,0,50.506,34.2a21.348,21.348,0,0,0-3.259-1.1,2.284,2.284,0,0,1,.456-2.722l.044-.042a.352.352,0,0,0,.1-.158c1.834.767,10.5,4.517,13.374,7.954Zm1.408-8.146c-.063.064-.122.125-.178.185a9.4,9.4,0,0,1-2.656,1.479A2.851,2.851,0,0,1,57.8,31.31a4.3,4.3,0,0,0-.932-.319l-.352-.562a.586.586,0,0,1-.041-.544l.34-.785a6.447,6.447,0,0,0,2.035-2.365l4.592,2.187a4.082,4.082,0,0,1-.816,1.062Zm1.043-1.733L59.131,26.09a6.476,6.476,0,0,0,.39-2.647l2.5-1.253c.164.435.342.866.515,1.286a17.616,17.616,0,0,1,1.1,3.266,3.846,3.846,0,0,1,.028,1.508Z" transform="translate(-38.999 -10.003)" fill="#fff"/>
      <path id="Pfad_27" data-name="Pfad 27" d="M101.367,119.471a4.831,4.831,0,0,0-1.214.5,3.011,3.011,0,0,0-1.551,1.967.352.352,0,1,0,.688.144c.3-1.456,2.211-1.916,2.233-1.921a.352.352,0,0,0-.157-.686Z" transform="translate(-95.103 -113.047)" fill="#fff"/>
    </g>
    <circle id="Ellipse_13" data-name="Ellipse 13" cx="33" cy="33" r="33" transform="translate(38 37)" fill="#f24638"/>
    <g id="maskMan" transform="translate(68.615 56.611)">
      <path id="Pfad_28" data-name="Pfad 28" d="M94.371,27.3a18.88,18.88,0,0,0-1.194-3.541c-.221-.535-.449-1.088-.647-1.637a1.645,1.645,0,0,0-.665-1.305l-.736-.545.627-.578a1.08,1.08,0,0,0,.305-1.089,11.722,11.722,0,0,0-.889-2.185l-1.141-2.135.248-.128A.366.366,0,0,0,90.436,14a2.736,2.736,0,0,0-2.488-4l-7.548.176a7.81,7.81,0,0,0-6.418,3.569c-.059.092-.118.187-.173.283A8.57,8.57,0,0,0,72.737,19.6l.169,2.761A13.45,13.45,0,0,0,76.5,30.687c-.006.013-.011.026-.016.039a3.1,3.1,0,0,0-.638,3.592,35.721,35.721,0,0,0-3.7,4.3.7.7,0,0,0,.55,1.105l18.5.318H91.2a.7.7,0,0,0,.537-1.136,20.045,20.045,0,0,0-4.886-3.854l-.114-2.385c.16.055.342.131.529.21a4.863,4.863,0,0,0,1.849.5,2.235,2.235,0,0,0,.763-.13,10.547,10.547,0,0,0,3-1.675l.231-.236A4.016,4.016,0,0,0,94.371,27.3Zm-3.013-8.49a.342.342,0,0,1-.1.344l-.952.878a.366.366,0,0,0,.031.564l1.092.808a.913.913,0,0,1,.353.563l-2.877,1.44L84.676,22.8l.339-3.91a4.353,4.353,0,0,1,2.3-3.205l2.062-1.063ZM80.642,28.134a17.864,17.864,0,0,0,5.1,1.8l-.19.52a1.351,1.351,0,0,0,.047,1.036l.4.837L86.1,34.6a79.184,79.184,0,0,0-8.7-4.275l-.008,0,.226-3.741c.04-.554.108-1.108.2-1.658A7.024,7.024,0,0,0,80.642,28.134Zm-2.579-4.382c.026-.107.052-.213.08-.319a1.721,1.721,0,0,1,2.348-1.14l3.416,1.117a4.483,4.483,0,0,1-.66,2.112,4.629,4.629,0,0,1-2.4,1.892,7.158,7.158,0,0,1-2.625-3.328C78.169,23.967,78.115,23.855,78.063,23.752ZM81.7,27.847a5.272,5.272,0,0,0,2.167-1.94,5.211,5.211,0,0,0,.764-2.371l3.99.574a5.952,5.952,0,0,1-2.475,5.159A17.094,17.094,0,0,1,81.7,27.847Zm-8.065-5.533-.17-2.777c0-.011,0-.022,0-.032a7.833,7.833,0,0,1,.976-5.1c.051-.087.1-.173.158-.258a7.078,7.078,0,0,1,5.818-3.232l7.548-.176h.048a2,2,0,0,1,1.822,2.83l-2.854,1.471a5.088,5.088,0,0,0-2.693,3.759c0,.008,0,.015,0,.023l-.334,3.854-3.169-1.05a2.453,2.453,0,0,0-3.348,1.625,17.916,17.916,0,0,0-.547,3.289l-.2,3.273a12.736,12.736,0,0,1-3.053-7.494Zm-.861,16.679a35.014,35.014,0,0,1,3.641-4.21c.938.23,5.651,1.507,8.136,4.413Zm18.346.316-5.621-.1a13.026,13.026,0,0,0-5.533-4,22.148,22.148,0,0,0-3.433-1.153,2.376,2.376,0,0,1,.481-2.827l.046-.044a.366.366,0,0,0,.1-.166c1.912.8,10.964,4.707,13.961,8.288Zm1.47-8.488c-.065.067-.128.13-.186.192a9.818,9.818,0,0,1-2.773,1.541,2.981,2.981,0,0,1-2.08-.353,4.519,4.519,0,0,0-.969-.331l-.327-.692a.614.614,0,0,1-.021-.471l.3-.815a6.72,6.72,0,0,0,2.115-2.458l4.8,2.267A4.238,4.238,0,0,1,92.593,30.82ZM93.684,29l-4.739-2.239a6.735,6.735,0,0,0,.407-2.756L91.962,22.7c.172.453.357.9.538,1.341a18.33,18.33,0,0,1,1.152,3.4A4.027,4.027,0,0,1,93.684,29Z" transform="translate(-72.009 -10.001)" fill="#fff"/>
    </g>
    <g id="mask-2" data-name="mask" transform="translate(45.974 50.042)">
      <path id="Pfad_26-2" data-name="Pfad 26" d="M64.33,26.608a18.138,18.138,0,0,0-1.144-3.4c-.212-.514-.43-1.045-.62-1.571a1.58,1.58,0,0,0-.637-1.253l-.027-.018-.746-.452a2.7,2.7,0,0,0,.514-2.9c-.122-.287-.258-.572-.4-.847L60.18,14.112l.23-.119a.352.352,0,0,0,.151-.15A2.626,2.626,0,0,0,58.176,10l-7.42.175a7.219,7.219,0,0,0-5.728,3.343,5.047,5.047,0,0,0-.551,1.181l-.015.048a.81.81,0,0,1-.774.565h-.009a4.688,4.688,0,0,0-.057,9.375,1.937,1.937,0,0,0,.208-.01,5.451,5.451,0,0,0,1.33,2.173,8.435,8.435,0,0,0,2.23,1.673L47.307,29.7a.659.659,0,0,0-.115.2,2.983,2.983,0,0,0-.611,3.447,34.263,34.263,0,0,0-3.548,4.129.667.667,0,0,0,.527,1.06l17.724.305H61.3a.668.668,0,0,0,.515-1.09h0a19.232,19.232,0,0,0-4.687-3.7l-.1-2.285c.153.053.325.126.5.2a4.654,4.654,0,0,0,1.772.477,2.139,2.139,0,0,0,.732-.125A10.1,10.1,0,0,0,62.907,30.7a.358.358,0,0,0,.04-.037c.054-.059.116-.122.182-.19A3.858,3.858,0,0,0,64.33,26.608ZM60.644,16.494c.136.258.264.525.378.794a2,2,0,0,1-.41,2.177.66.66,0,0,0,.133,1.024l.777.47a.877.877,0,0,1,.327.532l-2.756,1.381-4.051-.584.325-3.753a4.178,4.178,0,0,1,2.206-3.076l1.982-1.024ZM51.176,27.406a17.085,17.085,0,0,0,4.859,1.724l-.206.476a1.289,1.289,0,0,0,.091,1.2l.385.614.1,2.193a75.886,75.886,0,0,0-8.327-4.1l-.047-.016.255-3.577c.039-.544.106-1.087.2-1.626A6.731,6.731,0,0,0,51.176,27.406ZM48.717,23.16c.022-.089.044-.178.067-.267A1.647,1.647,0,0,1,51.032,21.8L54.3,22.871a4.308,4.308,0,0,1-.633,2.027,4.435,4.435,0,0,1-2.3,1.815,6.863,6.863,0,0,1-2.493-3.207C48.826,23.384,48.77,23.266,48.717,23.16Zm3.476,3.97A4.959,4.959,0,0,0,55,22.992l3.822.551a5.717,5.717,0,0,1-2.371,4.952A16.326,16.326,0,0,1,52.193,27.13Zm-7.745-2.886a.371.371,0,0,0-.363-.3l-.039,0-.144.018a1.931,1.931,0,0,1-.272.023,3.984,3.984,0,1,1,.049-7.968h.01a1.511,1.511,0,0,0,1.443-1.054l.015-.048a4.348,4.348,0,0,1,.474-1.017,6.516,6.516,0,0,1,5.168-3.019l7.4-.174a1.923,1.923,0,0,1,1.791,2.716L57.25,14.834a4.883,4.883,0,0,0-2.58,3.608c0,.007,0,.014,0,.022l-.32,3.7-3.035-1.007a2.35,2.35,0,0,0-3.208,1.56,17.211,17.211,0,0,0-.524,3.153l-.135,1.892A5.974,5.974,0,0,1,44.448,24.244Zm-.806,13.584a33.582,33.582,0,0,1,3.482-4.035c.954.237,5.42,1.464,7.783,4.229Zm17.575.3-5.4-.093A12.5,12.5,0,0,0,50.506,34.2a21.348,21.348,0,0,0-3.259-1.1,2.284,2.284,0,0,1,.456-2.722l.044-.042a.352.352,0,0,0,.1-.158c1.834.767,10.5,4.517,13.374,7.954Zm1.408-8.146c-.063.064-.122.125-.178.185a9.4,9.4,0,0,1-2.656,1.479A2.851,2.851,0,0,1,57.8,31.31a4.3,4.3,0,0,0-.932-.319l-.352-.562a.586.586,0,0,1-.041-.544l.34-.785a6.447,6.447,0,0,0,2.035-2.365l4.592,2.187a4.082,4.082,0,0,1-.816,1.062Zm1.043-1.733L59.131,26.09a6.476,6.476,0,0,0,.39-2.647l2.5-1.253c.164.435.342.866.515,1.286a17.616,17.616,0,0,1,1.1,3.266,3.846,3.846,0,0,1,.028,1.508Z" transform="translate(-38.999 -10.003)" fill="#fff"/>
      <path id="Pfad_27-2" data-name="Pfad 27" d="M101.367,119.471a4.831,4.831,0,0,0-1.214.5,3.011,3.011,0,0,0-1.551,1.967.352.352,0,1,0,.688.144c.3-1.456,2.211-1.916,2.233-1.921a.352.352,0,0,0-.157-.686Z" transform="translate(-95.103 -113.047)" fill="#fff"/>
    </g>
  </g>
</svg>
