<svg xmlns="http://www.w3.org/2000/svg" xmlns:xlink="http://www.w3.org/1999/xlink" width="142" height="140" viewBox="0 0 142 140">
  <defs>
    <clipPath id="clip-ort-icon2">
      <rect width="142" height="140"/>
    </clipPath>
  </defs>
  <g id="ort-icon2" clip-path="url(#clip-ort-icon2)">
    <rect width="142" height="140" fill="#fff"/>
    <circle id="Ellipse_12" data-name="Ellipse 12" cx="33" cy="33" r="33" transform="translate(38 37)" fill="#f24638"/>
    <g id="nohumans" transform="translate(50.329 48.466)">
      <path id="Pfad_45" data-name="Pfad 45" d="M224.727,101.274a2.946,2.946,0,1,0-2.946-2.946,2.946,2.946,0,0,0,2.946,2.946Zm0-4.845a1.9,1.9,0,1,1-1.9,1.9A1.9,1.9,0,0,1,224.727,96.429Z" transform="translate(-203.597 -88.227)" fill="#fff"/>
      <path id="Pfad_46" data-name="Pfad 46" d="M127.423,101.274a2.946,2.946,0,1,0-2.946-2.946A2.946,2.946,0,0,0,127.423,101.274Zm0-4.845a1.9,1.9,0,1,1-1.9,1.9A1.9,1.9,0,0,1,127.423,96.429Z" transform="translate(-114.783 -88.227)" fill="#fff"/>
      <path id="Pfad_47" data-name="Pfad 47" d="M34.547,13.384a21.169,21.169,0,1,0,14.969,6.2,21.169,21.169,0,0,0-14.969-6.2ZM14.425,34.554A20.122,20.122,0,0,1,48.4,19.96l-2.6,2.605a2.946,2.946,0,1,0-3.719,3.718l-.19.191h-.612a3.191,3.191,0,0,0-2.482,1.186,3.192,3.192,0,0,0-2.484-1.186H32.785A3.19,3.19,0,0,0,30.3,27.66a3.188,3.188,0,0,0-2.483-1.187H24.295a3.217,3.217,0,0,0-3.121,2.477L19.8,34.81a1.356,1.356,0,0,0,.246,1.171,1.391,1.391,0,0,0,2.434-.5l0-.016.315-1.252V45.558l-2.849,2.849A19.982,19.982,0,0,1,14.425,34.554Zm28.613,2.76a.524.524,0,0,0-.524.524v8.842a.842.842,0,1,1-1.684,0V29.985a.524.524,0,0,0-.455-.519l1.946-1.946H44.8a2.17,2.17,0,0,1,2.1,1.668l1.375,5.876a.311.311,0,0,1-.056.273.333.333,0,0,1-.271.127.343.343,0,0,1-.329-.26l-1.344-5.347a.524.524,0,0,0-1.031.128V46.679a.842.842,0,1,1-1.684,0V37.837A.524.524,0,0,0,43.038,37.314Zm-8.49,0a.524.524,0,0,0-.524.524v8.842a.842.842,0,1,1-1.684,0V37.5l4.415-4.416V46.679a.842.842,0,1,1-1.684,0V37.837A.524.524,0,0,0,34.547,37.314ZM32.34,36.021V29.985a.524.524,0,0,0-1.031-.128L29.965,35.2a.343.343,0,0,1-.329.26.333.333,0,0,1-.27-.127.307.307,0,0,1-.053-.1v-.18l1.371-5.859a2.171,2.171,0,0,1,2.1-1.673H36.31a2.169,2.169,0,0,1,2.1,1.668l.144.617-.625.625-.144-.573a.524.524,0,0,0-1.031.128v1.621ZM26.581,41.78V37.837a.524.524,0,1,0-1.047,0v4.99L23.85,44.511V29.985a.524.524,0,0,0-1.031-.128L21.475,35.2a.343.343,0,0,1-.329.26.333.333,0,0,1-.27-.127.316.316,0,0,1-.054-.28l1.371-5.863a2.171,2.171,0,0,1,2.1-1.673H27.82a2.155,2.155,0,0,1,1.917,1.18c-.027.082-.051.165-.072.25l-.286,1.223-.083-.32a.524.524,0,0,0-1.031.131V40.1Zm1.684-.2v5.1a.842.842,0,1,1-1.684,0V43.261Zm-2.731,2.731v2.371a.842.842,0,1,1-1.684,0v-.687Zm3.778-7.834a1.427,1.427,0,0,0,.324.037,1.388,1.388,0,0,0,1.338-1.026l0-.016.314-1.252v2.851l-1.981,1.981Zm9.524-5.468.947,4.047v.182a.316.316,0,0,1-.053.1.334.334,0,0,1-.271.127.343.343,0,0,1-.329-.26l-.9-3.591Zm.871-.871.026-.026-.017.065Zm-.281-1.2q-.03-.119-.068-.235a2.168,2.168,0,0,1,1.422-1.12ZM41.1,23.485a1.9,1.9,0,1,1,3.8-.021l-1.92,1.92a1.9,1.9,0,0,1-1.878-1.9Zm7.677,25.3a20.122,20.122,0,0,1-28.082.365l2.138-2.138a1.888,1.888,0,0,0,3.225.974,1.888,1.888,0,0,0,3.255-1.3v-6.15l1.981-1.981v8.13a1.888,1.888,0,0,0,3.255,1.3,1.888,1.888,0,0,0,3.255-1.3V34.217l.314,1.252,0,.016a1.388,1.388,0,0,0,1.338,1.026,1.426,1.426,0,0,0,.324-.037V46.679a1.888,1.888,0,0,0,3.255,1.3,1.888,1.888,0,0,0,3.255-1.3V34.216l.315,1.252,0,.016a1.391,1.391,0,0,0,2.434.5,1.351,1.351,0,0,0,.249-1.163l-1.374-5.873a3.215,3.215,0,0,0-3.12-2.471H43.368l.076-.076a2.953,2.953,0,0,0,2.466-2.466L49.141,20.7a20.122,20.122,0,0,1-.365,28.082Z" transform="translate(-13.377 -13.384)" fill="#fff"/>
    </g>
  </g>
</svg>
